<svg width="747" height="806" viewBox="0 0 747 806" fill="none" xmlns="http://www.w3.org/2000/svg">
<path d="M337.334 400.979C284.344 364.476 224.537 364.747 167.786 355.643C126.598 349.019 85.9271 341.493 50.6634 318.96C9.71052 292.822 -10.9305 234.191 8.20594 202.51C30.4456 165.736 96.9764 154.695 143.242 179.932C180.105 200.031 206.247 230.766 233.235 261.005C260.083 291.109 288.106 320.312 316.411 349.199C324.31 357.311 334.607 368.036 347.49 361.051C360.232 354.156 354.777 340.276 353.414 329.37C346.549 274.39 316.787 226.575 299.296 174.885C288.905 144.105 285.426 113.46 288.858 82.0946C293.889 36.7585 325.72 6.5194 367.66 0.660855C408.566 -5.06249 436.166 27.2947 451.917 62.6712C470.207 103.726 457.042 143.88 443.219 183.177C428.925 223.826 413.127 263.98 398.316 304.449C390.887 324.773 388.537 345.549 392.674 371.642C428.502 352.759 454.362 329.911 477.354 303.232C505.894 270.109 534.669 237.166 564.902 205.53C585.12 184.349 611.638 170.378 641.307 166.548C681.319 161.41 722.742 169.883 739.105 206.341C755.514 242.844 742.678 281.645 708.731 309.136C658.327 350.01 595.088 354.246 533.729 362.313C501.004 366.594 469.173 372.994 438.564 384.621C429.442 388.091 417.03 391.155 416.747 402.692C416.418 414.86 429.63 416.752 438.564 420.538C494.892 444.648 557.003 441.313 615.729 454.292C654.942 462.99 692.933 474.391 719.827 505.036C744.982 533.698 756.078 569.21 736.048 601.612C715.078 635.546 676.382 645.551 635.947 636.493C588.035 625.767 555.874 593.996 525.877 558.529C487.651 513.373 454.879 462.043 395.401 434.193C385.715 462.629 392.392 484.937 400.197 506.794C413.644 544.288 428.737 581.242 441.855 618.827C449.472 640.684 457.418 662.991 460.38 685.659C467.621 741.045 422.437 803.01 375.23 805.895C329.247 808.689 287.306 755.466 287.588 695.303C287.87 635.411 319.185 584.442 338.791 530.138C348.853 502.242 370.34 461.953 346.267 447.983C317.774 431.444 296.193 472.183 276.351 493.274C241.793 530.048 214.616 573.04 174.086 604.857C133.886 636.448 90.3938 650.508 39.9433 628.426C11.7793 616.078 -2.27913 596.114 0.730038 565.469C5.94906 512.292 39.4731 483.269 89.3594 467.001C130.5 453.571 173.099 448.118 215.839 442.305C257.685 436.581 301.036 433.201 337.24 401.07L337.334 400.979Z" fill="#F9A8D4" fill-opacity="0.6"/>
</svg>
