<svg width="225" height="218" viewBox="0 0 225 218" fill="none" xmlns="http://www.w3.org/2000/svg">
<g clip-path="url(#clip0_1535_8686)">
<rect width="225" height="217.645" fill="#FCE7F3"/>
<path d="M143.512 79.2576C109.439 86.3627 89.2692 106.078 81.2539 140.253V79.2576H143.512Z" fill="#FAFAFA"/>
<path d="M81.1211 58.2207V0.249512H141.28C109.175 7.39866 89.4006 26.879 81.1211 58.2207Z" fill="#FAFAFA"/>
<path d="M0.176758 79.0955H63.0071C29.3165 85.995 8.51498 104.873 0.176758 137.213V79.0955Z" fill="#FAFAFA"/>
<path d="M225 79.1836C192.029 86.1713 171.814 104.521 162.757 135.379V79.1836H225Z" fill="#FAFAFA"/>
<path d="M0 57.0612V0.17627H59.7915C28.1709 7.82454 8.33823 26.5121 0 57.0612Z" fill="#FAFAFA"/>
<path d="M162.096 0H223.326C191.206 7.50147 171.476 25.8368 162.096 56.283V0Z" fill="#FAFAFA"/>
<path d="M81.1514 217.645V159.16H137.244C107.473 167.836 88.8437 187.199 81.1514 217.645Z" fill="#FAFAFA"/>
<path d="M0.162109 158.882H56.313C26.7035 167.646 7.9425 186.553 0.162109 216.486V158.867V158.882Z" fill="#FAFAFA"/>
<path d="M162.61 158.838H218.306C189.724 167.602 171.154 185.893 162.61 214.71V158.838Z" fill="#FAFAFA"/>
</g>
<defs>
<clipPath id="clip0_1535_8686">
<rect width="225" height="217.645" fill="white"/>
</clipPath>
</defs>
</svg>
