<svg width="16" height="17" viewBox="0 0 16 17" fill="none" xmlns="http://www.w3.org/2000/svg">
<path d="M11.3335 1.83337H4.66683C2.82588 1.83337 1.3335 3.32576 1.3335 5.16671V11.8334C1.3335 13.6743 2.82588 15.1667 4.66683 15.1667H11.3335C13.1744 15.1667 14.6668 13.6743 14.6668 11.8334V5.16671C14.6668 3.32576 13.1744 1.83337 11.3335 1.83337Z" stroke="#DB2777" stroke-width="1.33333" stroke-linecap="round" stroke-linejoin="round"/>
<path d="M10.6668 8.07996C10.7491 8.63479 10.6543 9.20143 10.396 9.6993C10.1376 10.1972 9.72889 10.6009 9.22788 10.8531C8.72687 11.1052 8.1591 11.193 7.60532 11.1039C7.05155 11.0148 6.53997 10.7533 6.14336 10.3567C5.74674 9.96012 5.48528 9.44854 5.39618 8.89477C5.30707 8.34099 5.39484 7.77322 5.64701 7.27221C5.89919 6.77119 6.30292 6.36245 6.80079 6.10412C7.29865 5.84579 7.8653 5.75102 8.42013 5.83329C8.98608 5.91721 9.51003 6.18093 9.91459 6.58549C10.3192 6.99006 10.5829 7.51401 10.6668 8.07996Z" stroke="#DB2777" stroke-width="1.33333" stroke-linecap="round" stroke-linejoin="round"/>
<path d="M11.6665 4.83337H11.6732" stroke="#DB2777" stroke-width="1.33333" stroke-linecap="round" stroke-linejoin="round"/>
</svg>
