<svg width="161" height="160" viewBox="0 0 161 160" fill="none" xmlns="http://www.w3.org/2000/svg">
<path d="M160.965 80.1158C160.873 73.4583 155.006 76.0339 151.495 75.9649C134.113 74.9875 121.258 78.4026 102.964 75.022C117.955 65.5933 151.945 62.7762 154.775 49.3001C152.534 44.2868 149.243 47.0004 146.286 48.2537C130.128 53.3935 117.793 64.8919 100.088 65.0069C108.554 53.0256 140.107 35.5135 137.474 24.1416C125.866 19.7952 104.719 53.1981 91.7607 61.2814C95.2371 46.2415 118.128 16.9666 111.314 6.54901C101.37 3.40994 89.0928 48.2652 85.2699 58.0504C81.0197 41.3892 90.5596 11.4243 80.1189 0.799805C67.784 12.5397 81.4009 40.7223 75.834 58.1194C64.3192 44.0683 65.1276 12.2867 48.8659 6.83647C43.3337 20.6001 64.758 40.2968 65.8206 57.7514C48.9583 53.2326 39.6032 23.0607 23.8959 24.3141C22.1057 38.3076 53.7283 53.29 61.2008 67.6516C43.6109 67.1686 19.8882 41.4812 5.67081 49.737C10.2213 63.4661 41.3588 65.2944 54.5829 73.9527C41.405 79.219 2.76033 69.0544 0 81.0472C10.6371 92.8791 39.2221 79.7019 55.9342 85.3706C43.865 94.4314 8.2348 98.0189 5.67081 110.713C15.5456 119.59 43.7264 96.2136 57.4125 93.661C52.7234 112.024 21.8054 119.751 22.6948 136.803C34.0364 140.896 52.2615 109.115 63.707 101.825C65.8899 115.312 51.0719 131.824 47.8034 146.462C46.2095 149.405 44.2346 152.786 49.3972 154.626C66.3519 147.6 61.4549 119.222 75.961 104.676C77.4394 124.166 69.1237 145.691 79.8763 159.8C92.165 156.856 76.758 93.201 87.961 107.816C89.139 115.197 112.019 177.795 112.723 146.577C107.179 132.434 99.522 121.752 95.6876 105.274C111.637 109.713 126.201 141.598 136.942 136.677C143.491 126.983 109.143 107.781 102.456 97.6164C118.879 94.6613 132.323 108.609 147.591 113.151C177.966 110.069 110.194 89.5905 103.634 85.888C118.81 79.4834 155.087 92.7641 161 80.1273L160.965 80.1158ZM61.6974 68.4449C61.6166 68.33 61.5819 68.1805 61.5588 68.031C61.7783 68.2265 61.9977 68.422 62.2287 68.6174C62.0439 68.5599 61.7783 68.5599 61.709 68.4449H61.6974Z" fill="#F8B0B4"/>
</svg>
