<svg width="179" height="167" viewBox="0 0 179 167" fill="none" xmlns="http://www.w3.org/2000/svg">
<path d="M179 83.5L178.365 83.0588C178.224 82.965 168.633 76.404 154.689 72.3398C166.275 64.0048 172.844 54.7218 172.945 54.5904L173.378 53.9709L172.613 53.7644C172.431 53.7175 158.336 49.9723 141.481 51.7651C150.146 38.3146 152.352 24.9674 152.372 24.7984L152.483 24.0663L151.697 24.1696C151.526 24.1883 140.262 25.8122 127.648 31.7912C129.25 18.7725 126.973 8.44762 126.943 8.29744L126.782 7.5747L126.087 7.93137C125.916 8.01585 113.181 14.6144 102.633 26.9291C98.5623 11.6671 89.9584 0.732127 89.8476 0.591333L89.3741 0L88.9005 0.591333C88.7998 0.713354 82.1101 9.21729 77.7275 21.6822C68.912 11.2353 59.2905 5.322 59.1495 5.23752L58.4845 4.83391L58.2629 5.54727C58.2125 5.71622 54.2027 18.81 56.1069 34.4944C41.5689 26.2909 27.051 24.2071 26.8696 24.179L26.0838 24.0757L26.1946 24.8078C26.2148 24.9674 27.998 35.7897 34.6676 47.7478C20.5023 46.1709 9.19835 48.3298 9.03715 48.3579L8.26138 48.5081L8.64423 49.1557C8.7349 49.3153 15.7772 61.1138 28.9249 70.9224C12.5331 74.7239 0.785839 82.7491 0.634716 82.8523L0 83.2935L0.634716 83.7347C0.765689 83.8285 9.90359 90.061 23.283 94.144C12.1301 102.338 5.81319 111.255 5.72252 111.387L5.2893 112.006L6.05499 112.213C6.23634 112.259 20.1598 115.958 36.874 114.249C28.1089 127.766 25.8823 141.235 25.8521 141.413L25.7413 142.145L26.5271 142.042C26.6984 142.023 38.3651 140.352 51.2407 134.101C49.387 147.599 51.7848 158.459 51.815 158.618L51.9762 159.341L52.6714 158.984C52.8426 158.9 65.547 152.311 76.0853 140.024C80.1556 155.314 88.7796 166.268 88.8905 166.409L89.364 167L89.8375 166.409C89.9382 166.277 96.9201 157.417 101.293 144.52C110.098 154.911 119.669 160.796 119.81 160.88L120.475 161.284L120.697 160.57C120.747 160.401 124.707 147.495 122.893 131.961C137.28 139.968 151.516 142.004 151.697 142.033L152.483 142.136L152.372 141.404C152.352 141.244 150.619 130.769 144.212 119.036C158.478 120.66 169.892 118.483 170.054 118.445L170.829 118.295L170.446 117.647C170.356 117.488 163.293 105.661 150.125 95.8523C166.487 92.0509 178.204 84.0538 178.355 83.9412L178.99 83.5H179Z" fill="#6993FF"/>
</svg>
