<svg width="106" height="106" viewBox="0 0 106 106" fill="none" xmlns="http://www.w3.org/2000/svg">
<path d="M105.388 53.0001L105.016 52.723C104.934 52.664 99.3197 48.5418 91.1579 45.9883C97.9398 40.7515 101.785 34.9191 101.844 34.8366L102.097 34.4473L101.649 34.3176C101.543 34.2881 93.2927 31.9351 83.4266 33.0615C88.4982 24.6107 89.7897 16.2248 89.8015 16.1187L89.8664 15.6587L89.4064 15.7235C89.3062 15.7353 82.713 16.7556 75.3296 20.5121C76.2673 12.3326 74.9345 5.84562 74.9168 5.75127L74.8225 5.29718L74.4156 5.52127C74.3153 5.57435 66.8612 9.72012 60.6867 17.4573C58.3042 7.86838 53.268 0.998072 53.2031 0.909613L52.9259 0.538086L52.6488 0.909613C52.5898 0.986278 48.674 6.3292 46.1087 14.1608C40.9486 7.59711 35.3167 3.88183 35.2342 3.82876L34.8449 3.57518L34.7152 4.02337C34.6857 4.12952 32.3386 12.3562 33.4532 22.2105C24.9434 17.0563 16.4455 15.7471 16.3393 15.7294L15.8793 15.6646L15.9442 16.1246C15.956 16.2248 16.9998 23.0243 20.9038 30.5375C12.6123 29.5467 5.99553 30.9031 5.90117 30.9208L5.44708 31.0151L5.67118 31.4221C5.72425 31.5223 9.84644 38.9352 17.5424 45.0978C7.94752 47.4862 1.07131 52.5284 0.982856 52.5932L0.611328 52.8704L0.982856 53.1476C1.05952 53.2065 6.40834 57.1223 14.2399 59.6876C7.71163 64.8359 4.01405 70.4383 3.96097 70.5209L3.70739 70.9101L4.15558 71.0399C4.26173 71.0694 12.4117 73.3929 22.1953 72.3196C17.0647 80.8116 15.7614 89.2742 15.7437 89.3862L15.6788 89.8462L16.1388 89.7814C16.2391 89.7696 23.0681 88.7198 30.6048 84.7923C29.5197 93.2725 30.9233 100.096 30.941 100.196L31.0353 100.65L31.4422 100.426C31.5425 100.373 38.9789 96.233 45.1475 88.5134C47.5299 98.1201 52.578 105.002 52.6429 105.091L52.92 105.462L53.1972 105.091C53.2562 105.008 57.343 99.4411 59.9024 91.3382C65.0566 97.8665 70.659 101.564 70.7416 101.617L71.1308 101.871L71.2605 101.423C71.29 101.316 73.6077 93.2077 72.5461 83.4477C80.9674 88.4781 89.3003 89.7578 89.4064 89.7755L89.8664 89.8403L89.8015 89.3803C89.7897 89.2801 88.7754 82.6988 85.0247 75.3272C93.3753 76.3474 100.057 74.9792 100.151 74.9556L100.605 74.8613L100.381 74.4544C100.328 74.3541 96.1942 66.9236 88.4864 60.7609C98.0636 58.3725 104.922 53.3481 105.011 53.2773L105.382 53.0001H105.388Z" fill="#EC4899"/>
</svg>
