<svg width="16" height="17" viewBox="0 0 16 17" fill="none" xmlns="http://www.w3.org/2000/svg">
<path d="M15.3332 2.49999C14.6948 2.95031 13.9879 3.29473 13.2398 3.51999C12.8383 3.05833 12.3047 2.73112 11.7112 2.58261C11.1177 2.4341 10.4928 2.47145 9.92122 2.68963C9.34961 2.9078 8.8588 3.29626 8.51516 3.80247C8.17152 4.30868 7.99164 4.90821 7.99984 5.51999V6.18666C6.82826 6.21704 5.66735 5.9572 4.62051 5.43029C3.57367 4.90338 2.67338 4.12575 1.99984 3.16666C1.99984 3.16666 -0.666829 9.16666 5.33317 11.8333C3.96019 12.7653 2.32461 13.2326 0.666504 13.1667C6.6665 16.5 13.9998 13.1667 13.9998 5.49999C13.9992 5.31429 13.9814 5.12905 13.9465 4.94666C14.6269 4.27565 15.1071 3.42847 15.3332 2.49999V2.49999Z" stroke="#DB2777" stroke-width="1.33333" stroke-linecap="round" stroke-linejoin="round"/>
</svg>
